# xmcd
#
# Track frame offsets:
#	150
#	21406
#	37011
#	54016
#	78187
#	94233
#	108624
#	117689
#	130588
#	150143
#	165912
#	179318
#	193605
#	206462
#	220383
#
# Disc length: 3189 seconds
#
# Revision: 1
# Processed by: cddbd v1.5.2PL0 Copyright (c) Steve Scherf et al.
# Submitted via: audiograbber 1.83.01
#
DISCID=c00c730f
DTITLE=Brenn Hill - What a Man's Got To Do
DYEAR=2006
DGENRE=Cowboy
TTITLE0=Meet Me In McCall
TTITLE1=Caffeine
TTITLE2=The Onyx Mine
TTITLE3=The Ballad of Buffalo Brogan
TTITLE4=Sweetwater Beach
TTITLE5=What a Man's Got To Do
TTITLE6=Oakbrush
TTITLE7=She Loves Me Anyway
TTITLE8=The Ballad of Pogue and Elms
TTITLE9=Casa Blanca
TTITLE10=Debt
TTITLE11=Jeremiah's Last Ride
TTITLE12=The Gaping Jaws of Hell
TTITLE13=Into the Wind
TTITLE14=Simple Things
EXTD=Added caps, corrected spelling 
EXTT0=
EXTT1=
EXTT2=
EXTT3=
EXTT4=
EXTT5=
EXTT6=
EXTT7=
EXTT8=
EXTT9=
EXTT10=
EXTT11=
EXTT12=
EXTT13=
EXTT14=
PLAYORDER=
